<svg xmlns="http://www.w3.org/2000/svg" viewBox="0 0 160 48" role="img" aria-labelledby="title desc">
  <title id="title">FabLabs R22</title>
  <desc id="desc">Логотип сети FabLabs R22 с акцентом на 3D-печать</desc>
  <defs>
    <linearGradient id="bg" x1="0" y1="0" x2="1" y2="1">
      <stop offset="0%" stop-color="#0ea5e9" />
      <stop offset="100%" stop-color="#22c55e" />
    </linearGradient>
    <linearGradient id="accent" x1="0" y1="0" x2="1" y2="1">
      <stop offset="0%" stop-color="#fff" stop-opacity="0.85" />
      <stop offset="100%" stop-color="#e0f2fe" stop-opacity="0.9" />
    </linearGradient>
  </defs>
  <rect x="2" y="2" width="156" height="44" rx="14" fill="url(#bg)" />
  <g fill="none" stroke="url(#accent)" stroke-width="4" stroke-linecap="round" stroke-linejoin="round">
    <path d="M28 32V14h12c4.5 0 7.5 2.6 7.5 6.4 0 3.2-1.8 5.3-4.7 6.1l5.1 5.5" />
    <path d="M64 32c0-6 4.2-10 9.6-10 5.6 0 9.4 4 9.4 10s-3.8 10-9.4 10C68.2 42 64 38 64 32Z" />
    <path d="M101 18h22l-12 12h10l-16 12" />
  </g>
  <circle cx="132" cy="16" r="6" fill="#0f172a" opacity="0.35" />
  <path d="M132 12v8m-4-4h8" stroke="#f8fafc" stroke-width="2" stroke-linecap="round" />
</svg>
