<svg xmlns="http://www.w3.org/2000/svg" viewBox="0 0 1200 800">
  <defs>
    <linearGradient id="gradLab" x1="0" y1="0" x2="1" y2="1">
      <stop offset="0%" stop-color="#0f172a" />
      <stop offset="60%" stop-color="#1d4ed8" />
      <stop offset="100%" stop-color="#22d3ee" />
    </linearGradient>
    <linearGradient id="gradLight" x1="0" y1="0" x2="0" y2="1">
      <stop offset="0%" stop-color="rgba(255,255,255,0.6)" />
      <stop offset="100%" stop-color="rgba(255,255,255,0)" />
    </linearGradient>
  </defs>
  <rect width="1200" height="800" fill="url(#gradLab)" rx="48" ry="48" />
  <g fill="rgba(255,255,255,0.2)">
    <rect x="120" y="140" width="220" height="520" rx="28" />
    <rect x="370" y="110" width="240" height="580" rx="30" />
    <rect x="640" y="160" width="220" height="500" rx="26" />
    <rect x="890" y="200" width="180" height="420" rx="24" />
  </g>
  <g fill="rgba(255,255,255,0.08)">
    <path d="M150 640h180l-30 60H180z" />
    <path d="M410 660h210l-28 52H438z" />
    <path d="M680 660h190l-26 52H706z" />
  </g>
  <rect x="120" y="120" width="960" height="80" fill="rgba(15,23,42,0.25)" rx="20" />
  <rect x="120" y="120" width="960" height="80" fill="url(#gradLight)" rx="20" />
  <text x="160" y="172" font-family="'Inter', 'Segoe UI', sans-serif" font-size="42" fill="#f8fafc" font-weight="600">STEP3D.LAB — производственная зона</text>
  <text x="160" y="560" font-family="'Inter', 'Segoe UI', sans-serif" font-size="28" fill="#e2e8f0">Лаборатория с FDM/DLP принтерами и зонами постобработки</text>
  <circle cx="200" cy="240" r="40" fill="rgba(226,232,240,0.4)" />
  <rect x="290" y="230" width="140" height="70" rx="14" fill="rgba(148,163,184,0.3)" />
  <rect x="460" y="230" width="90" height="70" rx="14" fill="rgba(148,163,184,0.25)" />
  <rect x="580" y="230" width="120" height="70" rx="14" fill="rgba(148,163,184,0.35)" />
</svg>
